<svg width="20" height="20" viewBox="0 0 20 20" fill="none" xmlns="http://www.w3.org/2000/svg">
<g>
<path d="M10 15.8334H5C4.33696 15.8334 3.70107 15.57 3.23223 15.1011C2.76339 14.6323 2.5 13.9964 2.5 13.3334V6.66669C2.5 6.00365 2.76339 5.36776 3.23223 4.89892C3.70107 4.43008 4.33696 4.16669 5 4.16669H15C15.663 4.16669 16.2989 4.43008 16.7678 4.89892C17.2366 5.36776 17.5 6.00365 17.5 6.66669V10.4167M2.5 8.33335H17.5M13.3333 15.8334H18.3333M18.3333 15.8334L15.8333 13.3334M18.3333 15.8334L15.8333 18.3334M5.8375 12.5H5.84167M9.16667 12.5H10.8333" stroke="#2B2B2B" stroke-width="1.5" stroke-linecap="round" stroke-linejoin="round"/>
</g>
</svg>
