<svg width="20" height="20" viewBox="0 0 20 20" fill="none" xmlns="http://www.w3.org/2000/svg">
<g opacity="0.5">
<path d="M9.11662 5.06668C9.40892 5.02187 9.70423 4.99959 9.99995 5.00001C12.65 5.00001 15.1416 6.90834 16.5916 10C16.3699 10.4705 16.1194 10.9269 15.8416 11.3667C15.7534 11.5032 15.7071 11.6625 15.7083 11.825C15.7101 12.0069 15.7714 12.1831 15.8828 12.3269C15.9942 12.4707 16.1496 12.5741 16.3252 12.6213C16.5009 12.6685 16.6871 12.6569 16.8556 12.5884C17.0241 12.5199 17.1655 12.3981 17.2583 12.2417C17.6466 11.6316 17.9838 10.9906 18.2666 10.325C18.3113 10.221 18.3344 10.109 18.3344 9.99584C18.3344 9.88266 18.3113 9.77066 18.2666 9.66668C16.5833 5.75835 13.4166 3.33335 9.99995 3.33335C9.60884 3.33137 9.21835 3.36484 8.83328 3.43335C8.72385 3.45195 8.61915 3.49193 8.52516 3.55099C8.43118 3.61006 8.34975 3.68706 8.28552 3.7776C8.22129 3.86813 8.17553 3.97043 8.15084 4.07866C8.12615 4.18688 8.12301 4.29891 8.14162 4.40835C8.16022 4.51778 8.2002 4.62248 8.25926 4.71646C8.31833 4.81045 8.39533 4.89188 8.48587 4.95611C8.57641 5.02033 8.67871 5.0661 8.78693 5.09079C8.89515 5.11548 9.00718 5.11862 9.11662 5.10001V5.06668ZM3.09162 1.90835C3.01392 1.83065 2.92168 1.76901 2.82016 1.72696C2.71864 1.68491 2.60983 1.66327 2.49995 1.66327C2.39007 1.66327 2.28126 1.68491 2.17974 1.72696C2.07822 1.76901 1.98598 1.83065 1.90828 1.90835C1.75136 2.06527 1.66321 2.27809 1.66321 2.50001C1.66321 2.72193 1.75136 2.93476 1.90828 3.09168L4.49162 5.66668C3.31293 6.80129 2.37483 8.16167 1.73328 9.66668C1.6874 9.77182 1.66371 9.8853 1.66371 10C1.66371 10.1147 1.6874 10.2282 1.73328 10.3333C3.41662 14.2417 6.58328 16.6667 9.99995 16.6667C11.4975 16.6563 12.9598 16.2104 14.2083 15.3833L16.9083 18.0917C16.9858 18.1698 17.0779 18.2318 17.1795 18.2741C17.281 18.3164 17.3899 18.3382 17.5 18.3382C17.61 18.3382 17.7189 18.3164 17.8204 18.2741C17.922 18.2318 18.0141 18.1698 18.0916 18.0917C18.1697 18.0142 18.2317 17.922 18.274 17.8205C18.3163 17.7189 18.3381 17.61 18.3381 17.5C18.3381 17.39 18.3163 17.2811 18.274 17.1795C18.2317 17.078 18.1697 16.9858 18.0916 16.9083L3.09162 1.90835ZM8.39162 9.56668L10.4333 11.6083C10.2924 11.6487 10.1465 11.6684 9.99995 11.6667C9.55792 11.6667 9.134 11.4911 8.82144 11.1785C8.50888 10.866 8.33328 10.442 8.33328 10C8.33158 9.8535 8.35123 9.70752 8.39162 9.56668ZM9.99995 15C7.34995 15 4.85828 13.0917 3.41662 10C3.95502 8.81147 4.71918 7.73883 5.66662 6.84168L7.14162 8.33334C6.79516 8.96568 6.66307 9.6933 6.76517 10.4071C6.86727 11.1208 7.19805 11.7822 7.70789 12.2921C8.21773 12.8019 8.87914 13.1327 9.5929 13.2348C10.3067 13.3369 11.0343 13.2048 11.6666 12.8583L12.9916 14.1667C12.0842 14.7007 11.0528 14.988 9.99995 15Z" fill="#141414"/>
</g>
</svg>
