<svg width="20" height="20" viewBox="0 0 20 20" fill="none" xmlns="http://www.w3.org/2000/svg">
<g opacity="0.5">
<path d="M18.2667 9.66665C16.5834 5.75831 13.4167 3.33331 10.0001 3.33331C6.58339 3.33331 3.41672 5.75831 1.73339 9.66665C1.6875 9.77178 1.66382 9.88526 1.66382 9.99998C1.66382 10.1147 1.6875 10.2282 1.73339 10.3333C3.41672 14.2416 6.58339 16.6666 10.0001 16.6666C13.4167 16.6666 16.5834 14.2416 18.2667 10.3333C18.3126 10.2282 18.3363 10.1147 18.3363 9.99998C18.3363 9.88526 18.3126 9.77178 18.2667 9.66665ZM10.0001 15C7.35839 15 4.85839 13.0916 3.41672 9.99998C4.85839 6.90831 7.35839 4.99998 10.0001 4.99998C12.6417 4.99998 15.1417 6.90831 16.5834 9.99998C15.1417 13.0916 12.6417 15 10.0001 15ZM10.0001 6.66665C9.34078 6.66665 8.69632 6.86214 8.14816 7.22841C7.59999 7.59469 7.17275 8.11528 6.92046 8.72437C6.66816 9.33345 6.60215 10.0037 6.73077 10.6503C6.85939 11.2969 7.17686 11.8908 7.64303 12.357C8.10921 12.8232 8.70315 13.1406 9.34975 13.2693C9.99636 13.3979 10.6666 13.3319 11.2757 13.0796C11.8848 12.8273 12.4053 12.4 12.7716 11.8519C13.1379 11.3037 13.3334 10.6593 13.3334 9.99998C13.3334 9.11592 12.9822 8.26808 12.3571 7.64296C11.732 7.01784 10.8841 6.66665 10.0001 6.66665ZM10.0001 11.6666C9.67042 11.6666 9.34819 11.5689 9.07411 11.3858C8.80002 11.2026 8.5864 10.9423 8.46026 10.6378C8.33411 10.3332 8.3011 9.99813 8.36541 9.67483C8.42972 9.35153 8.58846 9.05456 8.82154 8.82147C9.05463 8.58838 9.3516 8.42965 9.6749 8.36534C9.99821 8.30103 10.3333 8.33403 10.6379 8.46018C10.9424 8.58633 11.2027 8.79995 11.3858 9.07403C11.569 9.34811 11.6667 9.67034 11.6667 9.99998C11.6667 10.442 11.4911 10.8659 11.1786 11.1785C10.866 11.4911 10.4421 11.6666 10.0001 11.6666Z" fill="#141414"/>
</g>
</svg>
