<svg width="24" height="24" viewBox="0 0 24 24" fill="none" xmlns="http://www.w3.org/2000/svg">
<g opacity="0.5">
<path fill-rule="evenodd" clip-rule="evenodd" d="M18.9995 15.8572V8.85718L13.9995 3.85718H8.99951C8.46908 3.85718 7.96037 4.06789 7.5853 4.44296C7.21023 4.81804 6.99951 5.32674 6.99951 5.85718V15.8572C6.99951 16.3876 7.21023 16.8963 7.5853 17.2714C7.96037 17.6465 8.46908 17.8572 8.99951 17.8572H16.9995C17.5299 17.8572 18.0387 17.6465 18.4137 17.2714C18.7888 16.8963 18.9995 16.3876 18.9995 15.8572Z" stroke="#141414" stroke-width="1.4" stroke-linecap="round" stroke-linejoin="round"/>
<path d="M5 5.85718V15.8572C5 16.918 5.42143 17.9355 6.17157 18.6856C6.92172 19.4357 7.93913 19.8572 9 19.8572H17M14 3.85718V6.85718C14 7.38761 14.2107 7.89632 14.5858 8.27139C14.9609 8.64646 15.4696 8.85718 16 8.85718H19" stroke="#141414" stroke-width="1.4" stroke-linecap="round" stroke-linejoin="round"/>
</g>
</svg>
