<svg width="20" height="20" viewBox="0 0 20 20" fill="none" xmlns="http://www.w3.org/2000/svg">
<g >
<path d="M2.75 2C2.55109 2 2.36032 2.07902 2.21967 2.21967C2.07902 2.36032 2 2.55109 2 2.75V8.75C2 9.164 2.336 9.5 2.75 9.5H5.25C5.44891 9.5 5.63968 9.42098 5.78033 9.28033C5.92098 9.13968 6 8.94891 6 8.75C6 8.55109 5.92098 8.36032 5.78033 8.21967C5.63968 8.07902 5.44891 8 5.25 8H3.5V3.5H5.25C5.44891 3.5 5.63968 3.42098 5.78033 3.28033C5.92098 3.13968 6 2.94891 6 2.75C6 2.55109 5.92098 2.36032 5.78033 2.21967C5.63968 2.07902 5.44891 2 5.25 2H2.75ZM2.75 10.5C2.55109 10.5 2.36032 10.579 2.21967 10.7197C2.07902 10.8603 2 11.0511 2 11.25V17.25C2 17.664 2.336 18 2.75 18H5.25C5.44891 18 5.63968 17.921 5.78033 17.7803C5.92098 17.6397 6 17.4489 6 17.25C6 17.0511 5.92098 16.8603 5.78033 16.7197C5.63968 16.579 5.44891 16.5 5.25 16.5H3.5V12H5.25C5.44891 12 5.63968 11.921 5.78033 11.7803C5.92098 11.6397 6 11.4489 6 11.25C6 11.0511 5.92098 10.8603 5.78033 10.7197C5.63968 10.579 5.44891 10.5 5.25 10.5H2.75ZM7.75 12C7.55109 12 7.36032 12.079 7.21967 12.2197C7.07902 12.3603 7 12.5511 7 12.75C7 12.9489 7.07902 13.1397 7.21967 13.2803C7.36032 13.421 7.55109 13.5 7.75 13.5H17.25C17.4489 13.5 17.6397 13.421 17.7803 13.2803C17.921 13.1397 18 12.9489 18 12.75C18 12.5511 17.921 12.3603 17.7803 12.2197C17.6397 12.079 17.4489 12 17.25 12H7.75ZM7 15.75C7 15.5511 7.07902 15.3603 7.21967 15.2197C7.36032 15.079 7.55109 15 7.75 15H17.25C17.4489 15 17.6397 15.079 17.7803 15.2197C17.921 15.3603 18 15.5511 18 15.75C18 15.9489 17.921 16.1397 17.7803 16.2803C17.6397 16.421 17.4489 16.5 17.25 16.5H7.75C7.55109 16.5 7.36032 16.421 7.21967 16.2803C7.07902 16.1397 7 15.9489 7 15.75ZM7 4.25C7 4.05109 7.07902 3.86032 7.21967 3.71967C7.36032 3.57902 7.55109 3.5 7.75 3.5H17.25C17.4489 3.5 17.6397 3.57902 17.7803 3.71967C17.921 3.86032 18 4.05109 18 4.25C18 4.44891 17.921 4.63968 17.7803 4.78033C17.6397 4.92098 17.4489 5 17.25 5H7.75C7.55109 5 7.36032 4.92098 7.21967 4.78033C7.07902 4.63968 7 4.44891 7 4.25ZM7.75 6.5C7.55109 6.5 7.36032 6.57902 7.21967 6.71967C7.07902 6.86032 7 7.05109 7 7.25C7 7.44891 7.07902 7.63968 7.21967 7.78033C7.36032 7.92098 7.55109 8 7.75 8H17.25C17.4489 8 17.6397 7.92098 17.7803 7.78033C17.921 7.63968 18 7.44891 18 7.25C18 7.05109 17.921 6.86032 17.7803 6.71967C17.6397 6.57902 17.4489 6.5 17.25 6.5H7.75Z" fill="#2B2B2B"/>
</g>
</svg>
