<svg width="24" height="24" viewBox="0 0 24 24" fill="none" xmlns="http://www.w3.org/2000/svg">
<g opacity="0.5">
<path d="M21.7863 14.4498L19.8 12.4635C19.6758 12.3393 19.5074 12.2696 19.3319 12.2696C19.1563 12.2696 18.9879 12.3393 18.8638 12.4635L12.7109 18.6164V21.5389H15.6334L21.7863 15.386C21.9104 15.2618 21.9801 15.0934 21.9801 14.9179C21.9801 14.7423 21.9104 14.5739 21.7863 14.4498ZM15.0852 20.2147H14.0351V19.1646L17.3456 15.8541L18.3956 16.9042L15.0852 20.2147ZM19.3319 15.968L18.2818 14.9179L19.3319 13.8678L20.3819 14.9179L19.3319 15.968ZM11.3867 16.2421C9.15936 16.2421 7.41406 14.4968 7.41406 12.2695C7.41406 10.0422 9.15936 8.29688 11.3867 8.29688C13.614 8.29688 15.3593 10.0422 15.3593 12.2695C15.3593 14.4968 13.614 16.2421 11.3867 16.2421ZM11.3867 9.62107C9.87707 9.62107 8.73826 10.7599 8.73826 12.2695C8.73826 13.7791 9.87707 14.9179 11.3867 14.9179C12.8962 14.9179 14.0351 13.7791 14.0351 12.2695C14.0351 10.7599 12.8962 9.62107 11.3867 9.62107Z" fill="#141414"/>
<path d="M19.0322 9.621L20.1796 8.9589L18.6329 6.28137C18.4798 6.01631 18.2396 5.81249 17.9532 5.70457C17.6667 5.59666 17.3517 5.59131 17.0618 5.68945L15.4502 6.23436C15.1725 6.0473 14.8823 5.87961 14.5815 5.73249L14.2485 4.06399C14.1884 3.76382 14.026 3.49376 13.7892 3.29977C13.5524 3.10578 13.2556 2.99985 12.9495 3H9.82436C9.51812 2.99988 9.2213 3.1059 8.98445 3.30002C8.74759 3.49414 8.58534 3.76436 8.52532 4.06466L8.19228 5.73249C7.88772 5.8808 7.59242 6.04301 7.31368 6.23105L5.7114 5.68945C5.42145 5.59131 5.10646 5.59666 4.82001 5.70457C4.53357 5.81249 4.29335 6.01631 4.14023 6.28137L2.57768 8.98803C2.42469 9.25314 2.36826 9.56305 2.41799 9.86507C2.46772 10.1671 2.62055 10.4426 2.85046 10.6446L4.12898 11.7682C4.11772 11.935 4.10382 12.1006 4.10382 12.2694C4.10382 12.4402 4.11 12.6093 4.12236 12.7766L2.85113 13.8942C2.6211 14.0962 2.46815 14.3716 2.4183 14.6736C2.36844 14.9756 2.42476 15.2856 2.57768 15.5508L4.14023 18.2574C4.29338 18.5226 4.5337 18.7265 4.82029 18.8345C5.10689 18.9424 5.42203 18.9477 5.71206 18.8493L7.32361 18.3044C7.60037 18.4911 7.88993 18.6584 8.19228 18.8063L8.52532 20.4741C8.58534 20.7744 8.74759 21.0446 8.98445 21.2388C9.2213 21.4329 9.51812 21.5389 9.82436 21.5388H11.3869V20.2146H9.82436L9.35427 17.8641C8.704 17.6225 8.10034 17.2704 7.56991 16.8233L5.28765 17.5953L3.7251 14.8887L5.52932 13.3029C5.40552 12.6183 5.40395 11.9171 5.52468 11.2319L3.72444 9.64947L5.28765 6.94347L7.55667 7.7115C8.09061 7.26341 8.69904 6.91247 9.35427 6.67465L9.82436 4.3242H12.9501L13.4202 6.67465C14.0705 6.91628 14.6741 7.2684 15.2046 7.71547L17.4868 6.94347L19.0322 9.621Z" fill="#141414"/>
</g>
</svg>
