<svg width="20" height="20" viewBox="0 0 20 20" fill="none" xmlns="http://www.w3.org/2000/svg">
<g clip-path="url(#clip0_1967_427)">
<path opacity="0.5" d="M3.58253 18.5625C3.48503 19.1175 4.03253 19.5513 4.51503 19.3038L10.0025 16.4838L15.4888 19.3038C15.9713 19.5513 16.5188 19.1175 16.4213 18.5638L15.3838 12.6513L19.7863 8.45627C20.1988 8.06378 19.9863 7.34628 19.4338 7.26878L13.3113 6.39878L10.5813 0.990026C10.5293 0.880387 10.4472 0.787755 10.3447 0.722891C10.2421 0.658028 10.1233 0.623596 10.0019 0.623596C9.88055 0.623596 9.7617 0.658028 9.65914 0.722891C9.55658 0.787755 9.47453 0.880387 9.42253 0.990026L6.69253 6.40003L0.570026 7.27003C0.0187758 7.34753 -0.194974 8.06503 0.216276 8.45753L4.62003 12.6525L3.58253 18.565V18.5625ZM9.71378 15.1038L5.10628 17.4713L5.97378 12.525C5.99466 12.4112 5.98698 12.2939 5.95142 12.1837C5.91586 12.0736 5.85354 11.9739 5.77003 11.8938L2.13753 8.43128L7.20253 7.71128C7.30723 7.69493 7.40649 7.65371 7.49197 7.59107C7.57745 7.52843 7.64666 7.4462 7.69378 7.35128L10 2.77878L12.3088 7.35128C12.3559 7.4462 12.4251 7.52843 12.5106 7.59107C12.5961 7.65371 12.6953 7.69493 12.8 7.71128L17.865 8.43003L14.2325 11.8925C14.1488 11.9728 14.0864 12.0727 14.0508 12.1831C14.0153 12.2935 14.0077 12.411 14.0288 12.525L14.8963 17.4713L10.2888 15.1038C10.1998 15.0575 10.1009 15.0334 10.0007 15.0334C9.90035 15.0334 9.80278 15.0575 9.71378 15.1038Z" fill="#141414"/>
</g>
<defs>
<clipPath id="clip0_1967_427">
<rect width="20" height="20" fill="white"/>
</clipPath>
</defs>
</svg>
