<svg width="24" height="24" viewBox="0 0 24 24" fill="none" xmlns="http://www.w3.org/2000/svg">
<path d="M8.11099 18.1111V19.3333C8.11099 20.3058 8.4973 21.2384 9.18493 21.9261C9.87256 22.6137 10.8052 23 11.7777 23C12.7501 23 13.6827 22.6137 14.3704 21.9261C15.058 21.2384 15.4443 20.3058 15.4443 19.3333V18.1111M9.33321 3.44444C9.33321 2.79614 9.59075 2.17438 10.0492 1.71596C10.5076 1.25754 11.1293 1 11.7777 1C12.426 1 13.0477 1.25754 13.5061 1.71596C13.9646 2.17438 14.2221 2.79614 14.2221 3.44444C15.6257 4.10814 16.8223 5.14129 17.6835 6.43314C18.5447 7.725 19.0382 9.22687 19.111 10.7778V14.4444C19.203 15.2043 19.4721 15.932 19.8966 16.5688C20.3212 17.2057 20.8894 17.734 21.5554 18.1111H1.99988C2.66591 17.734 3.23409 17.2057 3.65866 16.5688C4.08324 15.932 4.35234 15.2043 4.44432 14.4444V10.7778C4.51712 9.22687 5.01058 7.725 5.87182 6.43314C6.73305 5.14129 7.9296 4.10814 9.33321 3.44444Z" stroke="#2B2B2B" stroke-width="1.75193" stroke-linecap="round" stroke-linejoin="round"/>
</svg>
