<svg width="24" height="24" viewBox="0 0 24 24" fill="none" xmlns="http://www.w3.org/2000/svg">
<path d="M16.5318 12.382L16.7922 12.1048C17.2542 11.626 17.2626 11.0632 16.7838 10.5844L16.5486 10.3492C17.8842 9.17329 19.3289 9.0557 20.2697 8.10654C21.5716 6.78779 21.2356 4.88947 20.2361 3.88152C19.2449 2.87356 17.3466 2.56277 16.0111 3.84792C15.0535 4.78028 14.9443 6.23342 13.7683 7.56896L13.5416 7.33377C13.0628 6.85499 12.4916 6.87179 12.0128 7.32537L11.7356 7.58576C11.1729 8.11494 11.2569 8.61892 11.7608 9.1145L12.0968 9.45888L5.94828 15.6074C3.24359 18.3205 4.31874 18.2617 3 20.0928L3.86516 21C5.63749 19.6897 5.73829 20.874 8.46817 18.1609L14.6587 12.0124L15.0031 12.3568C15.5071 12.8523 15.9943 12.9363 16.5318 12.382ZM5.83068 18.3289C5.55349 18.0265 5.60389 17.7409 5.91468 17.4301L12.9788 10.3324L13.8019 11.164L6.71264 18.2533C6.43546 18.5305 6.09107 18.6145 5.83068 18.3289Z" fill="#428AFF"/>
</svg>
