<svg width="25" height="24" viewBox="0 0 25 24" fill="none" xmlns="http://www.w3.org/2000/svg">
<path d="M21.5 21L17.157 16.657M17.157 16.657C17.8999 15.9142 18.4892 15.0322 18.8913 14.0616C19.2933 13.091 19.5002 12.0507 19.5002 11.0001C19.5002 9.94952 19.2933 8.90922 18.8913 7.9386C18.4892 6.96798 17.8999 6.08606 17.157 5.34318C16.4142 4.6003 15.5322 4.01102 14.5616 3.60897C13.591 3.20693 12.5507 3 11.5001 3C10.4495 3 9.40922 3.20693 8.4386 3.60897C7.46798 4.01102 6.58606 4.6003 5.84318 5.34318C4.34287 6.84349 3.5 8.87835 3.5 11.0001C3.5 13.1219 4.34287 15.1567 5.84318 16.657C7.34349 18.1574 9.37835 19.0002 11.5001 19.0002C13.6219 19.0002 15.6567 18.1574 17.157 16.657Z" stroke="#727272" stroke-width="2" stroke-linecap="round" stroke-linejoin="round"/>
</svg>
