<svg width="44" height="44" viewBox="0 0 44 44" fill="none" xmlns="http://www.w3.org/2000/svg">
<g style="mix-blend-mode:luminosity">
<path fill-rule="evenodd" clip-rule="evenodd" d="M7.45741 34.1813C5.1806 31.642 4.05859 28.0857 4.05859 23.4927C4.05859 19.9889 4.82628 16.9116 6.36821 14.2805C7.91014 11.6494 10.1213 9.59565 12.9427 8.14558C15.7642 6.70207 19.0317 6 22.7192 6C25.7637 6 28.4933 6.35432 30.8292 7.02358C33.1716 7.6994 35.3565 8.69674 37.3118 10.009V22.5282V35.113C37.3118 35.9135 37.1806 36.4253 36.8919 36.6812C36.6032 36.9436 36.0586 37.0683 35.1925 37.0683H29.0641C28.618 37.0683 28.303 37.0027 28.0406 36.8452C27.7847 36.6812 27.5944 36.4581 27.4303 36.1366L26.6627 34.2469C25.5078 35.5264 24.0971 36.4909 22.4634 37.1011C20.8296 37.7113 18.8677 38 16.5318 38C12.7525 37.9672 9.73421 36.714 7.45741 34.1813ZM26.0273 24.7327C26.0273 26.2091 25.6139 27.3376 24.715 28.1381C23.8161 28.9386 22.5956 29.3257 21.0275 29.3257C17.7927 29.3257 16.1523 27.272 16.1523 23.2236C16.1523 20.435 16.7954 18.2501 18.042 16.7147C19.3281 15.1728 21.0275 14.3985 23.1468 14.3985C24.2951 14.3985 25.2596 14.5954 26.0273 14.9759V24.7327Z" fill="#428AFF"/>
</g>
</svg>
