<svg width="141" height="62" viewBox="0 0 141 62" fill="none" xmlns="http://www.w3.org/2000/svg">
<path fill-rule="evenodd" clip-rule="evenodd" d="M1.84068 37.3541C0.607636 36.0173 0 34.1451 0 31.7271C0 29.8826 0.415751 28.2625 1.25081 26.8774C2.08586 25.4922 3.28337 24.4111 4.81134 23.6477C6.33931 22.8877 8.10892 22.5181 10.1059 22.5181C11.7547 22.5181 13.233 22.7047 14.498 23.057C15.7666 23.4128 16.9498 23.9378 18.0088 24.6287V25.1572C18.4103 23.9102 19.0961 22.8843 20.0555 22.076C21.7043 20.7081 24.1562 20.0173 27.4005 20.0173C29.0351 20.0173 30.5986 20.2522 32.0732 20.7081C33.5479 21.1675 34.7809 21.7547 35.7546 22.4663V28.5596C36.1241 27.1503 36.7886 25.9896 37.7516 25.0846C39.3116 23.6166 41.5715 22.8705 44.5067 22.8705C47.3707 22.8705 49.5597 23.5993 51.0521 25.0328C52.5445 26.4698 53.2907 28.4836 53.2907 31.0328C53.2907 32.1313 52.8039 32.6908 51.8516 32.6908H41.6035C41.6035 33.6373 41.9518 34.3627 42.666 34.8705C43.3767 35.3782 44.4356 35.6304 45.8783 35.6304C46.7631 35.6304 47.5093 35.544 48.117 35.3782C48.7068 35.2055 49.3145 34.9706 49.9256 34.6321C50.1815 34.5147 50.3592 34.4629 50.4445 34.4629C50.6363 34.4629 50.8105 34.5976 50.9313 34.8532L52.0399 36.9637C52.1465 37.1848 52.1963 37.3541 52.1963 37.4542C52.1963 37.658 52.0577 37.8446 51.7983 38.0138C50.9135 38.6045 49.8901 39.0432 48.7601 39.2953C47.6301 39.5682 46.3296 39.6857 44.8691 39.6857C43.0818 39.7029 41.4472 39.3955 40.0258 38.7876C38.6009 38.1831 37.4744 37.2504 36.6394 36.0173C36.2272 35.4093 35.9216 34.7358 35.7155 33.9931C35.552 36.2314 34.7987 38.0691 33.4626 39.5164C31.9347 41.171 29.7102 42 26.8106 42C25.4923 41.9482 24.1562 41.7962 22.7988 41.5095C21.4449 41.2055 20.4393 40.8325 19.7784 40.38C19.622 40.2418 19.5545 40.1071 19.5545 39.9551C19.5545 39.8377 19.5865 39.7375 19.6576 39.6166L21.0647 37.0155C21.1322 36.8981 21.1997 36.8117 21.2708 36.7288C21.3419 36.6425 21.4272 36.6114 21.516 36.6114C21.548 36.6114 21.6866 36.6598 21.914 36.7461C22.9374 37.2677 24.3445 37.5406 26.1497 37.5406C27.1766 37.5406 27.9406 37.3195 28.4594 36.8808C28.9818 36.4387 29.2447 35.7306 29.2447 34.7323C28.8076 35.0397 28.2675 35.2919 27.6101 35.4784C26.9492 35.6615 26.2563 35.7651 25.5243 35.7651C22.9374 35.7651 20.9581 35.1226 19.6043 33.8204C18.8758 33.1226 18.3428 32.2556 18.0088 31.2193V37.8446C18.0088 38.266 17.9377 38.5354 17.7813 38.6701C17.625 38.8083 17.3301 38.8739 16.861 38.8739H13.5421C13.3005 38.8739 13.1299 38.8394 12.9878 38.7565C12.8492 38.6701 12.7461 38.5527 12.6573 38.3834L12.2416 37.3886C11.6162 38.0622 10.8522 38.5699 9.96736 38.8912C9.08256 39.2124 8.02008 39.3644 6.75507 39.3644C4.70829 39.3472 3.07371 38.6874 1.84068 37.3541ZM112.576 39.1606C112.331 38.8912 112.21 38.4836 112.21 37.9102V28.6978L112.157 28.8532C112.072 29.1572 111.915 29.3092 111.691 29.3092C111.585 29.3092 111.464 29.2608 111.325 29.1744C110.767 28.8359 110.11 28.6839 109.325 28.6839C108.547 28.6839 107.903 28.9223 107.399 29.3782C106.898 29.8342 106.635 30.4594 106.635 31.2193V38.8739C106.635 39.4473 106.514 39.8722 106.29 40.1244C106.045 40.3938 105.629 40.5112 105.039 40.5112H102.051C101.425 40.5492 100.992 40.4111 100.75 40.1589C100.505 39.8895 100.384 39.4819 100.384 38.9085V25.7271C100.384 25.3402 100.455 25.0674 100.594 24.9154C100.733 24.7807 101.01 24.6978 101.443 24.6978H104.624C104.865 24.6978 105.057 24.7288 105.196 24.8152C105.334 24.9016 105.402 25.0328 105.42 25.2193L105.576 26.1831C106.809 24.867 108.301 24.2073 110.057 24.2073C110.735 24.2073 111.29 24.2729 111.723 24.3938C111.894 24.4387 112.057 24.4974 112.214 24.5699C112.231 24.266 112.299 24.0518 112.42 23.9206C112.558 23.7858 112.836 23.6995 113.269 23.6995H116.446C116.691 23.6995 116.879 23.734 117.021 23.8204C117.16 23.9033 117.228 24.038 117.245 24.2245L117.402 25.1883C118.635 23.8687 120.127 23.2124 121.883 23.2124C122.558 23.2124 123.116 23.2781 123.549 23.3955C123.983 23.5164 124.366 23.7168 124.729 23.9724C124.938 24.1209 125.042 24.3074 125.042 24.494C125.042 24.563 125.024 24.6805 124.97 24.8497L124.167 27.2988C124.302 27.1537 124.441 27.0121 124.59 26.8774C126.239 25.3713 128.567 24.6114 131.537 24.6114C134.526 24.6114 136.832 25.3713 138.498 26.8774C140.165 28.38 141 30.4421 141 33.0432C141 35.6477 140.165 37.6926 138.498 39.2124C136.832 40.715 134.504 41.475 131.537 41.475C128.567 41.4611 126.257 40.715 124.59 39.2124C122.941 37.7064 122.106 35.6477 122.106 33.0432C122.106 31.1779 122.536 29.5993 123.389 28.2936C123.315 28.2694 123.236 28.2314 123.148 28.1796C122.593 27.8377 121.936 27.6857 121.151 27.6857C120.372 27.6857 119.729 27.924 119.225 28.38C118.724 28.8359 118.461 29.4611 118.461 30.2211V37.8791C118.461 38.4525 118.34 38.8739 118.112 39.1261C117.871 39.3955 117.455 39.5164 116.865 39.5164H113.877C113.234 39.551 112.818 39.4162 112.576 39.1606ZM134.419 33.0432C134.419 30.6287 133.463 29.4128 131.555 29.4128C129.643 29.4128 128.691 30.6287 128.691 33.0432C128.691 34.2763 128.933 35.2055 129.437 35.8135C129.938 36.4249 130.649 36.7461 131.555 36.7461C133.463 36.7461 134.419 35.5095 134.419 33.0432ZM84.3903 38.8739C83.367 37.8791 82.8481 36.342 82.8481 34.2625V25.7098C82.8481 25.1364 82.9654 24.715 83.2284 24.4421C83.4878 24.1727 83.9071 24.038 84.4969 24.038H87.5884C88.2103 24.038 88.6438 24.1727 88.889 24.4421C89.1519 24.715 89.2728 25.1364 89.2728 25.7098V34.0069C89.2728 35.2573 89.8626 35.8826 91.0246 35.8826C91.6678 35.8826 92.1546 35.7133 92.4851 35.3575C92.8333 35.0052 92.9861 34.5147 92.9861 33.8722V25.7098C92.9861 25.1364 93.1105 24.715 93.3699 24.4421C93.6293 24.1727 94.0663 24.038 94.674 24.038H97.7619C98.3695 24.038 98.8208 24.1727 99.066 24.4421C99.3254 24.715 99.4462 25.1364 99.4462 25.7098V38.8566C99.4462 39.2815 99.3787 39.551 99.2366 39.6857C99.098 39.8204 98.803 39.8895 98.3553 39.8895H95.072C94.809 39.8895 94.6207 39.8549 94.4785 39.7858C94.3435 39.7202 94.2547 39.5855 94.2369 39.3955L94.0805 38.3661C93.4551 38.9741 92.6912 39.4646 91.7886 39.8377C90.8682 40.1934 89.8271 40.38 88.6651 40.38C86.8564 40.38 85.4173 39.8722 84.3903 38.8739ZM72.9483 39.9033C71.8894 38.7565 71.3493 37.133 71.3493 35.0743V24.4594C71.3493 23.9378 71.3493 23.2435 71.3493 22.4663C71.3493 21.6891 71.3493 20.8117 71.7508 20.4214C72.1488 20.0311 72.6001 20 73.2965 20C73.9895 20 73.7834 20 74.2346 20H76.0895C76.683 20 77.0987 20.1347 77.3261 20.3869C77.5678 20.6598 77.6886 21.0639 77.6886 21.6373V25.2712H80.208C80.7978 25.2712 81.178 25.4059 81.3877 25.6442C81.5796 25.8964 81.6826 26.3178 81.6826 26.9119V28.1934C81.6826 28.7876 81.5796 29.209 81.3877 29.4473C81.1958 29.6822 80.7978 29.7997 80.208 29.7997H77.6886V34.8843C77.6886 35.5613 77.8094 36.0691 78.0724 36.3903C78.314 36.7116 78.7297 36.8636 79.2876 36.8636C79.6323 36.8636 79.9308 36.8117 80.1547 36.7288C80.3821 36.6425 80.6415 36.494 80.9542 36.2729C81.1283 36.152 81.2847 36.1036 81.4232 36.1036C81.6293 36.1036 81.807 36.2383 81.9633 36.494L83.2817 38.8739C83.4202 39.1434 83.5055 39.3472 83.5055 39.4991C83.5055 39.7029 83.3847 39.8895 83.1218 40.0553C82.4111 40.563 81.6116 40.9361 80.7268 41.1883C79.8419 41.4404 78.783 41.5613 77.5678 41.5613C75.553 41.6269 74.025 41.0535 72.9483 39.9033ZM54.2644 40.1589C54.005 39.8895 53.8806 39.4819 53.8806 38.9085V25.7271C53.8806 25.3402 53.9517 25.0674 54.0903 24.9154C54.2289 24.7807 54.5238 24.6978 54.9609 24.6978H58.2229C58.4823 24.6978 58.6742 24.7288 58.8163 24.8152C58.9514 24.9016 59.0224 25.0328 59.058 25.2193L59.2143 26.2176C59.8042 25.6097 60.5824 25.1192 61.5382 24.7461C62.4941 24.3938 63.5708 24.2073 64.7505 24.2073C66.4704 24.2073 67.842 24.715 68.9045 25.7098C69.9634 26.7081 70.4822 28.1934 70.4822 30.1554V38.9085C70.4822 39.4819 70.3614 39.9033 70.1162 40.1589C69.8746 40.4283 69.4411 40.5492 68.8334 40.5492H65.7597C65.1521 40.5492 64.7008 40.4111 64.4379 40.1589C64.1785 39.8895 64.0399 39.4819 64.0399 38.9085V30.5769C64.0399 29.9171 63.9013 29.4473 63.6241 29.1572C63.3469 28.8705 62.9134 28.7358 62.32 28.7358C61.6804 28.7358 61.1936 28.905 60.8098 29.2608C60.4473 29.6131 60.2555 30.1036 60.2555 30.7116V38.9085C60.2555 39.4819 60.1346 39.9033 59.8895 40.1589C59.6478 40.4283 59.2143 40.5492 58.6067 40.5492H55.5649C54.9609 40.5492 54.5238 40.4111 54.2644 40.1589ZM47.424 29.4128C47.424 28.5665 47.1789 27.924 46.7098 27.468C46.223 27.0121 45.5123 26.7737 44.5564 26.7737C43.6041 26.7737 42.8721 27.0121 42.3675 27.4853C41.8665 27.9585 41.6248 28.601 41.6248 29.4128H47.424ZM29.3122 28.8014V24.7979C28.8609 24.5941 28.0969 24.494 27.0203 24.494C26.0644 24.494 25.3359 24.7288 24.8491 25.2193C24.3623 25.7098 24.1207 26.5699 24.1207 27.8238C24.1207 28.9396 24.3445 29.7651 24.7958 30.2902C25.2471 30.8117 25.9791 31.0674 26.9492 31.0674C28.5305 31.0846 29.3122 30.3247 29.3122 28.8014ZM11.2004 34.228C11.6872 33.8066 11.9111 33.2124 11.9111 32.4352V27.2988C11.4953 27.0984 10.973 26.9948 10.3511 26.9948C9.20338 26.9948 8.28304 27.4024 7.58657 28.2142C6.91142 29.0225 6.56318 30.1727 6.56318 31.6408C6.56318 33.772 7.45154 34.8532 9.20338 34.8532C10.0526 34.8532 10.7136 34.6494 11.2004 34.228Z" fill="#428AFF"/>
</svg>
